<svg width="24" height="24" viewBox="0 0 24 24" fill="none" xmlns="http://www.w3.org/2000/svg">
<path d="M13.8516 15.7373C14.0108 15.7376 14.1279 15.8641 14.1279 16.0049V22.3418H9.74512V16.0049C9.74512 15.864 9.86207 15.7374 10.0215 15.7373H13.8516ZM11.9365 2C13.3531 2.00016 14.5424 3.01295 16.9209 5.03711L18.1973 6.12305C19.5133 7.24301 20.1721 7.80322 20.5225 8.55957C20.8727 9.31586 20.8721 10.1767 20.8721 11.8975V17.2715C20.8721 19.6614 20.8728 20.8571 20.125 21.5996C19.4156 22.3039 18.2957 22.339 16.1279 22.3408V16.0049C16.1279 14.746 15.1019 13.7376 13.8516 13.7373H10.0215C8.77103 13.7374 7.74512 14.7459 7.74512 16.0049V22.3408C5.57716 22.339 4.45749 22.3037 3.74805 21.5996C3.00023 20.8571 3 19.6615 3 17.2715V11.8975C3 10.1765 3.00021 9.31592 3.35059 8.55957C3.70096 7.80322 4.35878 7.24301 5.6748 6.12305L6.95117 5.03711C9.32988 3.01279 10.5198 2 11.9365 2Z" fill="#222222"/>
</svg>
